C:\Users\u0088756\Documents\FWO\Software\Misc\MuscleTendonEstimator\Examples\Example_trackUS\Data\trial_2_emg.mot
nRows=58
nColumns=4

name C:\Users\u0088756\Documents\FWO\Software\Misc\MuscleTendonEstimator\Examples\Example_trackUS\Data\trial_2_emg.mot
datacolumns 4
datarows 58
range 0.0000000000 0.0570000000
endheader
time	GastrocnemiusMedialis	Soleus	VastusLateralis
        0.0000000000	        0.0000000000	        1.0000000000	        0.0000000000	
        0.0010000000	        0.0039999893	        0.9999920000	        0.0079999147	
        0.0020000000	        0.0079999147	        0.9999680002	        0.0159993173	
        0.0030000000	        0.0119997120	        0.9999280009	        0.0239976961	
        0.0040000000	        0.0159993173	        0.9998720027	        0.0319945389	
        0.0050000000	        0.0199986667	        0.9998000067	        0.0399893342	
        0.0060000000	        0.0239976961	        0.9997120138	        0.0479815701	
        0.0070000000	        0.0279963415	        0.9996080256	        0.0559707353	
        0.0080000000	        0.0319945389	        0.9994880437	        0.0639563183	
        0.0090000000	        0.0359922245	        0.9993520700	        0.0719378081	
        0.0100000000	        0.0399893342	        0.9992001067	        0.0799146940	
        0.0110000000	        0.0439858040	        0.9990321562	        0.0878864653	
        0.0120000000	        0.0479815701	        0.9988482212	        0.0958526119	
        0.0130000000	        0.0519765685	        0.9986483046	        0.1038126240	
        0.0140000000	        0.0559707353	        0.9984324097	        0.1117659922	
        0.0150000000	        0.0599640065	        0.9982005399	        0.1197122073	
        0.0160000000	        0.0639563183	        0.9979526990	        0.1276507609	
        0.0170000000	        0.0679476068	        0.9976888908	        0.1355811449	
        0.0180000000	        0.0719378081	        0.9974091196	        0.1435028517	
        0.0190000000	        0.0759268585	        0.9971133898	        0.1514153744	
        0.0200000000	        0.0799146940	        0.9968017063	        0.1593182066	
        0.0210000000	        0.0839012508	        0.9964740740	        0.1672108425	
        0.0220000000	        0.0878864653	        0.9961304981	        0.1750927769	
        0.0230000000	        0.0918702736	        0.9957709841	        0.1829635055	
        0.0240000000	        0.0958526119	        0.9953955379	        0.1908225244	
        0.0250000000	        0.0998334166	        0.9950041653	        0.1986693308	
        0.0260000000	        0.1038126240	        0.9945968727	        0.2065034224	
        0.0270000000	        0.1077901704	        0.9941736665	        0.2143242979	
        0.0280000000	        0.1117659922	        0.9937345536	        0.2221314566	
        0.0290000000	        0.1157400256	        0.9932795409	        0.2299243991	
        0.0300000000	        0.1197122073	        0.9928086359	        0.2377026264	
        0.0310000000	        0.1236824735	        0.9923218458	        0.2454656409	
        0.0320000000	        0.1276507609	        0.9918191787	        0.2532129456	
        0.0330000000	        0.1316170058	        0.9913006425	        0.2609440449	
        0.0340000000	        0.1355811449	        0.9907662455	        0.2686584437	
        0.0350000000	        0.1395431146	        0.9902159962	        0.2763556486	
        0.0360000000	        0.1435028517	        0.9896499035	        0.2840351667	
        0.0370000000	        0.1474602928	        0.9890679765	        0.2916965067	
        0.0380000000	        0.1514153744	        0.9884702243	        0.2993391783	
        0.0390000000	        0.1553680335	        0.9878566567	        0.3069626922	
        0.0400000000	        0.1593182066	        0.9872272834	        0.3145665606	
        0.0410000000	        0.1632658307	        0.9865821144	        0.3221502969	
        0.0420000000	        0.1672108425	        0.9859211602	        0.3297134156	
        0.0430000000	        0.1711531789	        0.9852444313	        0.3372554329	
        0.0440000000	        0.1750927769	        0.9845519384	        0.3447758658	
        0.0450000000	        0.1790295734	        0.9838436928	        0.3522742333	
        0.0460000000	        0.1829635055	        0.9831197057	        0.3597500553	
        0.0470000000	        0.1868945101	        0.9823799886	        0.3672028534	
        0.0480000000	        0.1908225244	        0.9816245536	        0.3746321507	
        0.0490000000	        0.1947474856	        0.9808534125	        0.3820374716	
        0.0500000000	        0.1986693308	        0.9800665778	        0.3894183423	
        0.0510000000	        0.2025879973	        0.9792640621	        0.3967742903	
        0.0520000000	        0.2065034224	        0.9784458782	        0.4041048450	
        0.0530000000	        0.2104155435	        0.9776120391	        0.4114095370	
        0.0540000000	        0.2143242979	        0.9767625583	        0.4186878990	
        0.0550000000	        0.2182296231	        0.9758974493	        0.4259394651	
        0.0560000000	        0.2221314566	        0.9750167260	        0.4331637712	
        0.0570000000	        0.2260297361	        0.9741204024	        0.4403603550	
